HIERARCHY
ROOT Beta:Hips
{
	OFFSET 0.00 0.00 0.00
	CHANNELS 6 Xposition Yposition Zposition Yrotation Xrotation Zrotation
	JOINT Beta:Spine
	{
		OFFSET	0.0000	9.2263	1.5771
		CHANNELS 3 Xrotation Yrotation Zrotation
		JOINT Beta:Spine1
		{
			OFFSET	0.0000	16.2540	-0.1656
			CHANNELS 3 Xrotation Yrotation Zrotation
			JOINT Beta:Spine2
			{
				OFFSET	0.0000	13.6396	-1.2923
				CHANNELS 3 Xrotation Yrotation Zrotation
				JOINT Beta:Neck
				{
					OFFSET	0.0000	13.8774	-4.3542
					CHANNELS 3 Xrotation Yrotation Zrotation
					JOINT Beta:Neck1
					{
						OFFSET	0.0000	4.3400	0.9269
						CHANNELS 3 Xrotation Yrotation Zrotation
						JOINT Beta:Head
						{
							OFFSET	0.0000	4.0266	0.8585
							CHANNELS 3 Xrotation Yrotation Zrotation
							End Site
							{
								OFFSET 0.0000 23.0297 0.1231
							}
						}
					}
				}
				JOINT Beta:LeftShoulder
				{
					OFFSET	6.1442	10.1870	-3.7932
					CHANNELS 3 Zrotation Xrotation Yrotation
					JOINT Beta:LeftArm
					{
						OFFSET	12.3191	-1.1130	-1.7935
						CHANNELS 3 Zrotation Xrotation Yrotation
						JOINT Beta:LeftForeArm
						{
							OFFSET	27.6870	0.0000	0.0000
							CHANNELS 3 Xrotation Zrotation Yrotation
							JOINT Beta:LeftHand
							{
								OFFSET	27.8738	0.0000	0.0000
								CHANNELS 3 Zrotation Yrotation Xrotation
								JOINT Beta:LeftHandThumb1
								{
									OFFSET	2.3785	-1.0029	2.6209
									CHANNELS 3 Zrotation Xrotation Yrotation
									JOINT Beta:LeftHandThumb2
									{
										OFFSET	3.3624	-1.0029	2.8398
										CHANNELS 3 Zrotation Xrotation Yrotation
										JOINT Beta:LeftHandThumb3
										{
											OFFSET	4.5018	-1.3445	2.1783
											CHANNELS 3 Zrotation Xrotation Yrotation
											End Site
											{
												OFFSET 2.6000 -1.0000 1.0000
											}
										}
									}
								}
								JOINT Beta:LeftHandMiddle1
								{
									OFFSET	10.4639	0.6148	0.4298
									CHANNELS 3 Zrotation Xrotation Yrotation
									JOINT Beta:LeftHandMiddle2
									{
										OFFSET	5.7921	0.0000	0.0000
										CHANNELS 3 Zrotation Xrotation Yrotation
										JOINT Beta:LeftHandMiddle3
										{
											OFFSET	3.7132	0.0000	0.0000
											CHANNELS 3 Zrotation Xrotation Yrotation
											End Site
											{
												OFFSET 2.3000 0.0000 0.0000
											}
										}
									}
								}
								JOINT Beta:LeftHandIndex1
								{
									OFFSET	10.3945	0.6148	2.7055
									CHANNELS 3 Zrotation Xrotation Yrotation
									JOINT Beta:LeftHandIndex2
									{
										OFFSET	5.5493	0.0000	0.0000
										CHANNELS 3 Zrotation Xrotation Yrotation
										JOINT Beta:LeftHandIndex3
										{
											OFFSET	3.3911	0.0000	0.0000
											CHANNELS 3 Zrotation Xrotation Yrotation
											End Site
											{
												OFFSET 2.5000 0.0000 0.0000
											}
										}
									}
								}
								JOINT Beta:LeftHandRing1
								{
									OFFSET	10.3252	0.3211	-1.8755
									CHANNELS 3 Zrotation Xrotation Yrotation
									JOINT Beta:LeftHandRing2
									{
										OFFSET	5.4452	0.0000	0.0000
										CHANNELS 3 Zrotation Xrotation Yrotation
										JOINT Beta:LeftHandRing3
										{
											OFFSET	3.7132	0.0000	0.0000
											CHANNELS 3 Zrotation Xrotation Yrotation
											End Site
											{
												OFFSET 2.0000 0.0000 0.0000
											}
										}
									}
								}
								JOINT Beta:LeftHandPinky1
								{
									OFFSET	10.0130	-0.0783	-3.9671
									CHANNELS 3 Zrotation Xrotation Yrotation
									JOINT Beta:LeftHandPinky2
									{
										OFFSET	3.6763	0.0000	0.0000
										CHANNELS 3 Zrotation Xrotation Yrotation
										JOINT Beta:LeftHandPinky3
										{
											OFFSET	2.8113	0.0000	0.0000
											CHANNELS 3 Zrotation Xrotation Yrotation
											End Site
											{
												OFFSET 2.9000 0.0000 0.0000
											}
										}
									}
								}
							}
						}
					}
				}
				JOINT Beta:RightShoulder
				{
					OFFSET	-6.1402	10.1870	-3.7932
					CHANNELS 3 Zrotation Xrotation Yrotation
					JOINT Beta:RightArm
					{
						OFFSET	-12.3231	-1.1130	-1.7935
						CHANNELS 3 Zrotation Xrotation Yrotation
						JOINT Beta:RightForeArm
						{
							OFFSET	-27.6870	0.0000	0.0000
							CHANNELS 3 Xrotation Zrotation Yrotation
							JOINT Beta:RightHand
							{
								OFFSET	-27.8738	0.0000	0.0000
								CHANNELS 3 Zrotation Yrotation Xrotation
								JOINT Beta:RightHandThumb1
								{
									OFFSET	-2.5178	-0.9367	2.5137
									CHANNELS 3 Zrotation Xrotation Yrotation
									JOINT Beta:RightHandThumb2
									{
										OFFSET	-3.2638	-1.0870	2.9669
										CHANNELS 3 Zrotation Xrotation Yrotation
										JOINT Beta:RightHandThumb3
										{
											OFFSET	-4.4165	-1.3703	2.1350
											CHANNELS 3 Zrotation Xrotation Yrotation
											End Site
											{
												OFFSET -2.6000 -1.0000 1.0000
											}
										}
									}
								}
								JOINT Beta:RightHandIndex1
								{
									OFFSET	-10.4665	0.4896	2.7120
									CHANNELS 3 Zrotation Xrotation Yrotation
									JOINT Beta:RightHandIndex2
									{
										OFFSET	-5.3768	0.0000	0.0000
										CHANNELS 3 Zrotation Xrotation Yrotation
										JOINT Beta:RightHandIndex3
										{
											OFFSET	-3.3855	0.0000	0.0000
											CHANNELS 3 Zrotation Xrotation Yrotation
											End Site
											{
												OFFSET -2.6000 0.0000 0.0000
											}
										}
									}
								}
								JOINT Beta:RightHandMiddle1
								{
									OFFSET	-10.7596	0.4896	0.4278
									CHANNELS 3 Zrotation Xrotation Yrotation
									JOINT Beta:RightHandMiddle2
									{
										OFFSET	-5.6168	0.0000	0.0000
										CHANNELS 3 Zrotation Xrotation Yrotation
										JOINT Beta:RightHandMiddle3
										{
											OFFSET	-3.7364	0.0000	0.0000
											CHANNELS 3 Zrotation Xrotation Yrotation
											End Site
											{
												OFFSET -2.3000 0.0000 0.0000
											}
										}
									}
								}
								JOINT Beta:RightHandRing1
								{
									OFFSET	-10.4702	0.3879	-1.9363
									CHANNELS 3 Zrotation Xrotation Yrotation
									JOINT Beta:RightHandRing2
									{
										OFFSET	-5.4013	0.0000	0.0000
										CHANNELS 3 Zrotation Xrotation Yrotation
										JOINT Beta:RightHandRing3
										{
											OFFSET	-3.3916	0.0000	0.0000
											CHANNELS 3 Zrotation Xrotation Yrotation
											End Site
											{
												OFFSET -2.2000 0.0000 0.0000
											}
										}
									}
								}
								JOINT Beta:RightHandPinky1
								{
									OFFSET	-9.9715	-0.1191	-3.9540
									CHANNELS 3 Zrotation Xrotation Yrotation
									JOINT Beta:RightHandPinky2
									{
										OFFSET	-3.6528	0.0000	0.0000
										CHANNELS 3 Zrotation Xrotation Yrotation
										JOINT Beta:RightHandPinky3
										{
											OFFSET	-2.7820	0.0000	0.0000
											CHANNELS 3 Zrotation Xrotation Yrotation
											End Site
											{
												OFFSET -2.9000 0.0000 0.0000
											}
										}
									}
								}
							}
						}
					}
				}
			}
		}
	}
	JOINT Beta:LeftUpLeg
	{
		OFFSET	9.6338	-3.2733	0.0000
		CHANNELS 3 Xrotation Yrotation Zrotation
		JOINT Beta:LeftLeg
		{
			OFFSET	0.0000	-41.7300	-1.7300
			CHANNELS 3 Xrotation Yrotation Zrotation
			JOINT Beta:LeftFoot
			{
				OFFSET	0.0126	-39.1900	-0.8477
				CHANNELS 3 Xrotation Yrotation Zrotation
				JOINT Beta:LeftToeBase
				{
					OFFSET	-0.1833	-12.1931	8.2823
					CHANNELS 3 Xrotation Yrotation Zrotation
					End Site
					{
						OFFSET 0.0000 0.0000 10.1681
					}
				}
			}
		}
	}
	JOINT Beta:RightUpLeg
	{
		OFFSET	-9.6338	-3.2733	0.0000
		CHANNELS 3 Xrotation Yrotation Zrotation
		JOINT Beta:RightLeg
		{
			OFFSET	0.0000	-41.7300	-1.7300
			CHANNELS 3 Xrotation Yrotation Zrotation
			JOINT Beta:RightFoot
			{
				OFFSET	0.0126	-39.1900	-0.8477
				CHANNELS 3 Xrotation Yrotation Zrotation
				JOINT Beta:RightToeBase
				{
					OFFSET	-0.1833	-12.1931	8.2823
					CHANNELS 3 Xrotation Yrotation Zrotation
					End Site
					{
						OFFSET 0.0032 0.0000 10.1681
					}
				}
			}
		}
	}
}
MOTION
Frames: 7
Frame Time: 0.0333333
-0.4988 82.0644 -3.5291 5.4635 -9.6097 -0.6124 6.0573 -2.8448 -0.2572 1.1682 -0.7594 0.2890 1.1759 -0.7638 0.2993 9.7993 0.0721 -0.5746 -0.0000 0.0000 -0.0000 7.8758 0.8547 -1.5768 12.6637 28.3303 -6.6411 -18.8940 -85.5358 -68.2762 -6.3806 2.9265 -66.1604 19.2921 -11.8144 -50.8241 6.5406 10.1733 5.9496 21.7239 10.1670 11.4207 22.3871 4.8302 12.8963 8.9811 1.0590 -0.1521 -0.0170 -1.1210 0.1652 11.0289 0.1809 -0.0159 9.5527 0.8644 0.0652 0.0001 1.8633 -0.2167 10.9662 0.8123 -0.2476 9.2988 -1.6396 0.9398 -0.0703 -4.9314 0.6757 9.3716 -2.8197 0.8703 8.8178 -6.6260 2.3174 0.0002 0.0690 -0.6403 5.3350 -4.4884 2.2195 -26.8634 27.4553 29.3698 -98.1216 -78.5672 -56.9458 -10.3688 7.8155 59.8217 -14.2615 27.3132 -38.0443 -6.5192 10.1538 -5.9485 -21.6745 10.1644 -11.4447 -21.9318 7.7786 -18.5590 -9.4338 0.8595 -0.0740 0.0349 1.8611 0.2171 -10.8530 0.8124 0.2473 -8.8637 1.0549 0.1499 0.0491 -1.1187 -0.1684 -10.9108 0.1806 0.0171 -9.1736 -1.6457 -0.9400 0.0582 -4.9225 -0.6920 -9.2599 -2.8149 -0.8662 -8.6858 -6.6335 -2.3129 0.0498 0.0729 0.6361 -5.2235 -4.4855 -2.2119 -24.8317 -3.1599 13.2611 69.6636 3.7130 -7.7989 -32.5750 1.7404 -6.5383 -3.3727 -0.0000 -0.0000 -34.4160 -21.6740 -21.3683 65.8352 -9.5266 -9.6972 -25.5919 -1.8247 14.6472 1.3227 0.0000 -0.0001 
-0.3689 82.9007 -3.4443 4.9216 -9.6345 -0.2443 6.1300 -2.6762 0.2024 1.1609 -0.7336 0.2738 1.1631 -0.7360 0.2855 9.8920 0.0572 -0.5984 -0.0000 0.0000 -0.0000 7.7364 0.3242 -1.6383 12.1702 28.0464 -6.1608 -29.0108 -86.0036 -77.3904 -6.2924 2.0020 -67.6142 20.0845 -12.3062 -48.9435 6.5123 10.1402 5.9457 21.6706 10.1678 11.4515 22.3731 4.8017 12.9033 8.8292 1.0528 -0.1484 -0.0844 -1.1176 0.1688 10.8870 0.1807 -0.0158 9.3986 0.8594 0.0738 -0.0569 1.8601 -0.2171 10.8318 0.8126 -0.2457 9.1352 -1.6485 0.9418 -0.0970 -4.9189 0.6930 9.2394 -2.8122 0.8678 8.6428 -6.6368 2.3145 -0.0837 0.0749 -0.6340 5.2029 -4.4833 2.2120 -28.1475 27.4476 29.8011 -101.0479 -78.2974 -59.8522 -9.9833 7.2863 60.2506 -15.8879 27.0069 -38.0655 -6.5288 10.1650 -5.9497 -21.7020 10.1650 -11.4317 -21.9367 7.7883 -18.5568 -9.4962 0.8621 -0.0689 -0.0000 1.8622 0.2174 -10.9122 0.8123 0.2482 -8.9253 1.0570 0.1514 0.0136 -1.1198 -0.1670 -10.9730 0.1807 0.0172 -9.2393 -1.6426 -0.9395 0.0564 -4.9271 -0.6834 -9.3184 -2.8174 -0.8678 -8.7559 -6.6296 -2.3149 -0.0001 0.0705 0.6383 -5.2820 -4.4870 -2.2156 -23.7331 -1.7579 13.2298 67.4616 3.7655 -7.7417 -31.6193 1.5084 -5.9429 -3.5448 0.0000 -0.0000 -32.9631 -20.7329 -20.3776 63.7445 -9.4932 -9.7018 -24.4302 -2.4050 14.7506 1.3106 -0.0000 -0.0001 
-0.2354 84.3033 -3.2492 4.3326 -9.3967 0.1462 5.7120 -2.5417 0.4543 1.0847 -0.7098 0.2682 1.0803 -0.7109 0.2812 10.0411 0.0403 -0.6842 -0.0000 0.0000 -0.0000 8.0110 -0.3074 -1.9415 11.0571 27.4762 -5.2315 -43.9386 -85.6820 -92.1401 -6.4661 1.1701 -68.4740 20.9472 -13.2515 -47.2237 6.4992 10.1249 5.9439 21.6512 10.1687 11.4643 22.3666 4.7885 12.9065 8.7646 1.0500 -0.1468 -0.1430 -1.1161 0.1691 10.8291 0.1806 -0.0158 9.3330 0.8577 0.0765 -0.1016 1.8588 -0.2167 10.7774 0.8126 -0.2450 9.0652 -1.6525 0.9429 -0.1716 -4.9140 0.6923 9.1860 -2.8087 0.8670 8.5675 -6.6417 2.3138 -0.1452 0.0779 -0.6311 5.1495 -4.4807 2.2092 -29.8699 27.3643 30.6686 -104.5051 -77.7810 -63.3291 -9.4118 6.7041 61.0022 -18.0504 26.6889 -38.0968 -6.5656 10.2083 -5.9543 -21.7107 10.1584 -11.4085 -21.9555 7.8256 -18.5479 -9.6339 0.8625 -0.0719 -0.0000 1.8664 0.2145 -10.9993 0.8121 0.2493 -9.0602 1.0650 0.1551 0.0133 -1.1245 -0.1628 -11.0696 0.1810 0.0171 -9.3894 -1.6319 -0.9349 0.0551 -4.9424 -0.6677 -9.4027 -2.8277 -0.8666 -8.9184 -6.6172 -2.3111 -0.0001 0.0640 0.6463 -5.3660 -4.4957 -2.2179 -22.0740 -0.2168 12.9542 63.6973 4.1105 -7.5923 -29.8932 1.3007 -5.3222 -3.7158 -0.0000 -0.0000 -30.9722 -20.1395 -19.2476 60.0575 -9.3939 -9.7151 -22.5833 -2.7400 14.7528 1.3012 0.0000 -0.0000 
-0.1065 86.0423 -2.9977 3.5928 -8.8590 0.6608 5.0063 -2.3292 0.3861 0.9349 -0.6554 0.2609 0.9316 -0.6563 0.2715 10.1629 0.0365 -0.7238 -0.0000 0.0000 -0.0000 8.3720 -0.9269 -2.1647 9.7571 26.9765 -4.2228 -54.6799 -85.2207 -103.3015 -6.8529 0.4611 -68.9186 22.2121 -14.3145 -45.6201 6.5760 10.2147 5.9544 21.7035 10.1581 11.4066 22.4047 4.8659 12.8876 9.0812 1.0667 -0.1550 -0.0166 -1.1254 0.1612 11.0802 0.1812 -0.0157 9.6554 0.8620 0.0747 0.0001 1.8673 -0.2139 11.0079 0.8122 -0.2481 9.4134 -1.6297 0.9345 -0.0687 -4.9457 0.6603 9.4106 -2.8297 0.8670 8.9463 -6.6146 2.3103 0.0002 0.0628 -0.6480 5.3737 -4.4977 2.2182 -31.6933 27.3024 31.5678 -108.2266 -77.1303 -67.0611 -8.9810 6.2489 61.5587 -20.2639 26.3735 -38.1145 -6.5645 10.2069 -5.9542 -21.6997 10.1576 -11.4122 -21.9549 7.8244 -18.5482 -9.6165 0.8614 -0.0743 -0.0000 1.8662 0.2146 -10.9807 0.8121 0.2490 -9.0430 1.0646 0.1546 0.0133 -1.1242 -0.1630 -11.0494 0.1810 0.0171 -9.3715 -1.6324 -0.9349 0.0552 -4.9412 -0.6684 -9.3841 -2.8274 -0.8658 -8.8964 -6.6182 -2.3103 -0.0001 0.0644 0.6460 -5.3475 -4.4958 -2.2165 -20.0229 1.3859 12.3808 58.6172 4.4904 -7.3375 -27.4508 1.2127 -4.9609 -3.8464 0.0000 -0.0000 -28.8478 -19.7595 -18.1791 55.2090 -9.4626 -9.7065 -20.1520 -2.7825 14.6599 1.2736 -0.0000 0.0000 
0.0274 87.9108 -2.7382 2.8160 -8.0405 1.2059 4.1949 -1.9956 0.1175 0.7388 -0.5625 0.2398 0.7378 -0.5638 0.2469 10.1966 0.0454 -0.6458 -0.0000 0.0000 -0.0000 8.5731 -1.5388 -2.0627 8.6989 26.8555 -3.3394 -65.8431 -85.4157 -115.0153 -7.2765 -0.1964 -69.3851 23.1685 -15.1360 -43.9957 6.6451 10.2956 5.9638 21.7485 10.1484 11.3553 22.4389 4.9355 12.8706 9.3641 1.0817 -0.1624 -0.0158 -1.1341 0.1534 11.3033 0.1818 -0.0156 9.9436 0.8656 0.0736 0.0000 1.8752 -0.2083 11.2124 0.8118 -0.2508 9.7249 -1.6092 0.9269 -0.0655 -4.9750 0.6302 9.6098 -2.8487 0.8668 9.2853 -6.5903 2.3068 0.0002 0.0507 -0.6633 5.5725 -4.5131 2.2261 -33.1418 27.3675 31.8858 -113.1831 -76.3155 -72.1396 -8.7531 6.1903 61.7182 -21.5464 26.0408 -38.0710 -6.4532 10.0764 -5.9402 -21.6383 10.1742 -11.4919 -21.8982 7.7117 -18.5747 -9.1632 0.8566 -0.0735 0.2107 1.8542 0.2166 -10.6669 0.8128 0.2449 -8.5981 1.0405 0.1427 0.3117 -1.1110 -0.1707 -10.7058 0.1801 0.0172 -8.8806 -1.6652 -0.9480 0.3591 -4.8976 -0.6950 -9.0788 -2.7967 -0.8668 -8.3657 -6.6568 -2.3177 0.3105 0.0878 0.6215 -5.0428 -4.4706 -2.2051 -17.7879 2.9755 11.5245 52.6358 5.0841 -6.9487 -24.5770 1.1860 -4.6847 -3.9260 -0.0000 -0.0000 -26.7309 -19.5941 -17.1887 49.5616 -9.5313 -9.6594 -17.2849 -2.6204 14.3308 1.2296 -0.0014 0.0822 
0.1874 89.7276 -2.4861 2.2275 -6.9646 1.5870 3.2154 -1.7137 0.0194 0.5208 -0.4882 0.2133 0.5201 -0.4892 0.2181 10.1369 0.0615 -0.5227 -0.0000 0.0000 -0.0000 8.8146 -2.0833 -1.8978 8.0249 26.9991 -2.4448 -85.2623 -85.7608 -134.8352 -7.8072 -0.9314 -69.5234 22.3633 -15.4822 -42.2050 6.2811 9.8706 5.9136 21.5431 10.2019 11.6169 22.2585 4.5694 12.9599 7.9078 1.0026 -0.1242 -0.9950 -1.0912 0.1770 10.1747 0.1787 -0.0163 8.4597 0.8495 0.0722 -0.6700 1.8358 -0.2158 10.1818 0.8139 -0.2372 8.1185 -1.7166 0.9679 -1.1395 -4.8330 0.7046 8.6070 -2.7487 0.8699 7.5343 -6.7174 2.3288 -0.9881 0.1257 -0.5827 4.5719 -4.4311 2.1885 -34.1842 27.5549 31.6858 -118.3289 -75.0211 -77.6543 -8.7957 6.4769 61.1245 -21.0212 25.7133 -37.9505 -6.3790 9.9895 -5.9308 -21.6003 10.1854 -11.5443 -21.8604 7.6367 -18.5925 -8.8707 0.8538 -0.0724 0.4046 1.8464 0.2162 -10.4630 0.8132 0.2422 -8.3111 1.0246 0.1352 0.5966 -1.1027 -0.1734 -10.4860 0.1795 0.0174 -8.5636 -1.6867 -0.9561 0.6708 -4.8717 -0.6994 -8.8807 -2.7763 -0.8677 -8.0332 -6.6811 -2.3219 0.5926 0.1036 0.6052 -4.8451 -4.4538 -2.1980 -15.6455 4.4182 10.5893 46.2141 5.6871 -6.4062 -21.4078 1.1921 -4.4403 -3.9448 -0.0000 -0.0000 -25.1325 -19.5410 -16.1789 44.0169 -9.6599 -9.6667 -13.2878 -2.2089 13.1221 0.3988 -0.0045 0.8106 
0.3706 91.3077 -2.2318 1.9259 -5.6617 1.7529 1.8232 -1.7057 0.2531 0.2903 -0.4980 0.2022 0.2887 -0.4982 0.2054 10.0234 0.0908 -0.5050 -0.0000 0.0000 -0.0000 9.6026 -2.3910 -2.1350 7.6354 26.9507 -1.3848 -100.6655 -85.0015 -150.6302 -8.8613 -1.0395 -67.9755 19.1758 -15.3054 -40.2548 5.0241 8.4299 5.7264 20.8432 10.3738 12.5197 21.6382 3.3213 13.2599 2.9253 0.7320 0.0064 -5.9136 -0.9486 0.2208 6.3147 0.1682 -0.0186 3.3823 0.7945 0.0668 -3.9874 1.7047 -0.2081 6.6575 0.8210 -0.1906 2.6226 -2.0839 1.1082 -6.7794 -4.3695 0.7657 5.1775 -2.4062 0.8807 1.5429 -7.1520 2.4047 -5.8786 0.4000 -0.3059 1.1509 -4.1503 2.0602 -35.1961 27.5767 31.6859 -120.4673 -73.5672 -80.4185 -9.0756 6.0900 59.2129 -18.9108 25.6292 -37.8589 -6.6627 10.3224 -5.9665 -21.7607 10.1437 -11.3401 -22.0050 7.9242 -18.5248 -10.0347 0.8665 -0.0734 -0.0000 1.8777 0.2067 -11.2697 0.8115 0.2529 -9.4536 1.0863 0.1661 0.0124 -1.1370 -0.1518 -11.3713 0.1819 0.0170 -9.8240 -1.6029 -0.9224 0.0515 -4.9853 -0.6244 -9.6656 -2.8547 -0.8657 -9.4012 -6.5821 -2.3028 -0.0001 0.0461 0.6677 -5.6283 -4.5178 -2.2277 -13.7989 5.6671 9.7222 39.8397 6.0551 -5.7565 -18.3840 1.2160 -4.1976 -3.9013 -0.0000 -0.0000 -23.7016 -19.5623 -15.2163 38.4975 -9.5516 -9.6581 -8.8823 -1.9922 12.6400 -1.0750 -0.0059 0.9290 
